<?xml version="1.0" standalone="no"?>
<!DOCTYPE svg PUBLIC "-//W3C//DTD SVG 20010904//EN"
 "http://www.w3.org/TR/2001/REC-SVG-20010904/DTD/svg10.dtd">
<svg version="1.0" xmlns="http://www.w3.org/2000/svg"
 width="1024.000000pt" height="1024.000000pt" viewBox="0 0 1024.000000 1024.000000"
 preserveAspectRatio="xMidYMid meet">

<g transform="translate(0.000000,1024.000000) scale(0.100000,-0.100000)"
fill="#000000" stroke="none">
<path d="M0 5120 l0 -5120 5120 0 5120 0 0 5120 0 5120 -5120 0 -5120 0 0
-5120z m5805 3139 c155 -57 267 -173 309 -318 9 -30 16 -66 16 -81 l0 -26 -77
15 c-58 11 -153 15 -373 15 -264 1 -308 -2 -419 -22 -68 -12 -127 -20 -129
-17 -3 3 0 34 7 68 38 187 173 329 361 382 78 21 226 14 305 -16z m276 -529
c323 -32 571 -131 847 -337 361 -271 671 -727 821 -1212 131 -422 198 -835
241 -1496 14 -208 25 -1005 16 -1117 l-8 -87 -43 19 c-80 34 -412 139 -636
200 -707 194 -1356 310 -2049 365 -323 26 -964 21 -1315 -10 -733 -65 -1336
-209 -1807 -432 -135 -64 -133 -66 -124 142 7 170 37 520 61 707 64 514 80
616 136 908 38 195 50 242 106 415 59 181 91 261 158 396 176 353 492 705 822
917 334 213 851 426 1257 517 178 39 444 82 591 94 72 6 146 13 165 14 87 9
669 6 761 -3z m984 -197 c533 -132 1082 -445 1460 -834 224 -231 375 -466 498
-779 128 -327 194 -647 246 -1205 79 -835 66 -1001 -92 -1173 -119 -129 -386
-213 -632 -199 -105 6 -241 32 -264 50 -11 9 -12 64 -6 302 14 621 -26 1292
-106 1753 -116 671 -300 1117 -641 1549 -99 127 -351 370 -483 468 -66 48
-124 92 -130 97 -11 10 0 8 150 -29z m-1790 -3748 c779 -69 1473 -199 2190
-410 231 -68 559 -177 638 -212 70 -32 71 -40 21 -167 -112 -281 -358 -679
-600 -970 -328 -394 -642 -596 -991 -637 -165 -20 -368 15 -672 115 -75 24
-248 81 -384 125 -512 168 -932 262 -1457 327 -208 26 -759 31 -971 9 -502
-51 -880 -149 -1469 -380 -232 -91 -285 -106 -371 -106 -129 -1 -213 50 -260
156 -31 68 -31 192 -1 290 38 123 158 314 348 551 160 200 395 470 560 644 39
41 92 99 119 127 51 57 82 73 291 158 165 67 404 145 599 195 364 94 959 185
1335 204 186 9 903 -3 1075 -19z"/>
<path d="M4575 6573 c-409 -53 -765 -249 -1006 -553 -187 -237 -292 -481 -333
-777 -14 -97 -14 -110 0 -131 18 -27 14 -27 159 6 203 47 593 104 920 134 181
17 823 17 1055 0 198 -15 583 -62 740 -91 66 -12 111 -16 121 -10 28 14 30 52
10 171 -109 637 -629 1147 -1266 1243 -91 13 -322 18 -400 8z m365 -623 c157
-45 297 -133 408 -256 60 -67 135 -187 147 -235 l6 -25 -138 17 c-457 59 -845
51 -1311 -27 -84 -15 -156 -23 -159 -20 -19 19 76 188 165 292 118 139 287
236 477 273 86 17 319 6 405 -19z"/>
</g>
</svg>
